<?xml version="1.0" encoding="UTF-8"?>
<svg version="1.1" xmlns="http://www.w3.org/2000/svg" width="306" height="306">
<path d="M0 0 C4.69151183 2.33926846 9.26856716 4.80394929 13.80615234 7.43139648 C14.90032471 8.05481934 15.99449707 8.67824219 17.12182617 9.32055664 C20.45898049 11.22411914 23.7888705 13.13997528 27.11865234 15.05639648 C29.05549532 16.16171525 30.99295928 17.26594684 32.93115234 18.36889648 C36.42567484 20.35782682 39.91478921 22.35571784 43.39990234 24.36108398 C46.40397108 26.08622898 49.42149776 27.7798962 52.46240234 29.43920898 C53.11829346 29.80095215 53.77418457 30.16269531 54.44995117 30.53540039 C56.16213072 31.47717796 57.88036396 32.40792733 59.59912109 33.33764648 C62.30933263 35.18647296 62.93007062 36.08532235 64.11865234 39.05639648 C64.37261963 41.02905273 64.37261963 41.02905273 64.37744141 43.11889648 C64.38374573 43.90651367 64.39005005 44.69413086 64.39654541 45.50561523 C64.39047272 46.76825195 64.39047272 46.76825195 64.38427734 48.05639648 C64.3861908 48.9290918 64.38810425 49.80178711 64.39007568 50.70092773 C64.39143479 52.54337859 64.38775753 54.38583911 64.37939453 56.22827148 C64.36869108 59.04619892 64.37929906 61.86348885 64.39208984 64.68139648 C64.3907682 66.47306456 64.38820571 68.26473223 64.38427734 70.05639648 C64.38832581 70.8981543 64.39237427 71.73991211 64.39654541 72.60717773 C64.38708893 73.78860352 64.38708893 73.78860352 64.37744141 74.99389648 C64.37585022 75.68354492 64.37425903 76.37319336 64.37261963 77.08374023 C64.06914309 79.44095284 63.35750451 81.03571792 62.11865234 83.05639648 C61.12865234 83.55139648 61.12865234 83.55139648 60.11865234 84.05639648 C60.68898193 84.37914551 61.25931152 84.70189453 61.84692383 85.03442383 C64.4198552 86.49454466 66.98802403 87.96284562 69.55615234 89.43139648 C70.45398438 89.93928711 71.35181641 90.44717773 72.27685547 90.97045898 C73.13085938 91.46030273 73.98486328 91.95014648 74.86474609 92.45483398 C75.65550537 92.9052002 76.44626465 93.35556641 77.26098633 93.81958008 C79.11865234 95.05639648 79.11865234 95.05639648 80.11865234 97.05639648 C80.21924691 98.74093938 80.25700724 100.42941372 80.26391602 102.11694336 C80.27029587 103.17143677 80.27667572 104.22593018 80.2832489 105.31237793 C80.28491814 107.02644836 80.28491814 107.02644836 80.28662109 108.77514648 C80.28994949 109.94396362 80.29327789 111.11278076 80.29670715 112.3170166 C80.30177679 114.79182541 80.30411547 117.26664108 80.30395508 119.74145508 C80.30614322 123.54055958 80.32430338 127.3393746 80.34326172 131.13842773 C80.34619521 133.53816632 80.3481803 135.93790629 80.34912109 138.33764648 C80.35630661 139.48036011 80.36349213 140.62307373 80.37089539 141.80041504 C80.36781876 142.85490845 80.36474213 143.90940186 80.36157227 144.99584961 C80.36299728 145.92691528 80.3644223 146.85798096 80.3658905 147.81726074 C80.11865234 150.05639648 80.11865234 150.05639648 78.11865234 152.05639648 C72.07640941 152.76724859 69.01947399 151.25693307 64.11865234 148.05639648 C64.44865234 148.71639648 64.77865234 149.37639648 65.11865234 150.05639648 C65.21277695 151.4347192 65.246588 152.81744256 65.24804688 154.19897461 C65.25119904 155.0532605 65.2543512 155.90754639 65.25759888 156.78771973 C65.25456253 158.17368347 65.25456253 158.17368347 65.25146484 159.58764648 C65.25242157 160.53450317 65.2533783 161.48135986 65.25436401 162.45690918 C65.25504521 164.46093817 65.25319515 166.46496937 65.24902344 168.46899414 C65.24367434 171.54375139 65.24897049 174.61836255 65.25537109 177.69311523 C65.2547103 179.63712597 65.25342912 181.58113662 65.25146484 183.52514648 C65.25348907 184.44912231 65.25551331 185.37309814 65.25759888 186.32507324 C65.25287064 187.60650208 65.25287064 187.60650208 65.24804688 188.91381836 C65.24725128 189.66723511 65.24645569 190.42065186 65.24563599 191.19689941 C65.11865234 193.05639648 65.11865234 193.05639648 64.11865234 195.05639648 C61.09433515 196.11336194 59.52975805 196.20084212 56.48657227 195.1315918 C49.2464886 191.29474165 42.18650276 187.21156374 35.21563721 182.90692139 C33.39065415 181.78142049 31.56084413 180.66417653 29.72949219 179.54907227 C24.37960795 176.28994435 19.04200753 173.0129786 13.73193359 169.68920898 C12.23605881 168.76958189 10.73998522 167.85027804 9.24365234 166.93139648 C8.59178955 166.51212891 7.93992676 166.09286133 7.26831055 165.66088867 C4.39913627 163.91633269 2.61869961 163.01526779 -0.77246094 163.29418945 C-3.93599083 164.06979337 -6.15748381 165.09394773 -8.94384766 166.75952148 C-9.89509521 167.3216333 -10.84634277 167.88374512 -11.82641602 168.46289062 C-12.83454346 169.07124756 -13.8426709 169.67960449 -14.88134766 170.30639648 C-15.93136963 170.92957764 -16.9813916 171.55275879 -18.06323242 172.19482422 C-20.25118467 173.49422302 -22.43678823 174.7975841 -24.62011719 176.10473633 C-28.73296852 178.56604293 -32.85795164 181.00645537 -36.98486328 183.4440918 C-38.81957357 184.52835373 -40.65299461 185.61480143 -42.48486328 186.70385742 C-44.94505051 188.16394555 -47.412457 189.61108817 -49.88134766 191.05639648 C-50.70062744 191.54696533 -51.51990723 192.03753418 -52.36401367 192.54296875 C-53.15348389 193.00372803 -53.9429541 193.4644873 -54.75634766 193.93920898 C-55.45373047 194.35187012 -56.15111328 194.76453125 -56.86962891 195.18969727 C-60.17916555 196.61552919 -62.4739221 195.99887589 -65.88134766 195.05639648 C-67.18263557 191.15253276 -67.02414171 187.44112848 -67.01416016 183.37280273 C-67.01511688 182.52088852 -67.01607361 181.6689743 -67.01705933 180.79124451 C-67.01773966 178.98989793 -67.01589559 177.18854889 -67.01171875 175.38720703 C-67.00637502 172.63300041 -67.01166529 169.87895736 -67.01806641 167.12475586 C-67.01740547 165.37410446 -67.01612399 163.62345316 -67.01416016 161.87280273 C-67.01618439 161.04978165 -67.01820862 160.22676056 -67.02029419 159.37879944 C-67.00553537 155.76970177 -66.85702777 152.52908286 -65.88134766 149.05639648 C-66.89455078 149.50692383 -66.89455078 149.50692383 -67.92822266 149.96655273 C-69.26626953 150.53696289 -69.26626953 150.53696289 -70.63134766 151.11889648 C-71.51306641 151.50174805 -72.39478516 151.88459961 -73.30322266 152.27905273 C-76.04760049 153.10652423 -77.27064827 153.17946762 -79.88134766 152.05639648 C-81.12776653 149.56355875 -81.03531001 147.83298836 -81.07421875 145.04345703 C-81.09028168 143.9986467 -81.1063446 142.95383636 -81.12289429 141.87736511 C-81.16728572 137.09696043 -81.20840646 132.31669532 -81.23144531 127.53613281 C-81.24801222 125.01325257 -81.27531149 122.49041939 -81.31347656 119.96777344 C-81.36817955 116.33430579 -81.39011015 112.70193895 -81.40478516 109.06811523 C-81.42745453 107.94088547 -81.4501239 106.8136557 -81.47348022 105.65226746 C-81.45232064 97.82505341 -81.45232064 97.82505341 -78.57055664 93.94555664 C-77.68311768 93.32213379 -76.79567871 92.69871094 -75.88134766 92.05639648 C-75.2699292 91.62673584 -74.65851074 91.1970752 -74.02856445 90.75439453 C-73.18805542 90.29093628 -73.18805542 90.29093628 -72.33056641 89.81811523 C-71.71503906 89.47329102 -71.09951172 89.1284668 -70.46533203 88.77319336 C-69.83949219 88.43352539 -69.21365234 88.09385742 -68.56884766 87.74389648 C-67.92367187 87.38489258 -67.27849609 87.02588867 -66.61376953 86.65600586 C-65.04045411 85.78194173 -63.46147301 84.91808866 -61.88134766 84.05639648 C-63.08791016 83.87077148 -63.08791016 83.87077148 -64.31884766 83.68139648 C-65.16447266 83.47514648 -66.01009766 83.26889648 -66.88134766 83.05639648 C-68.01504471 80.78900238 -68.03068765 79.48103131 -68.07421875 76.96142578 C-68.09028168 76.11682297 -68.1063446 75.27222015 -68.12289429 74.40202332 C-68.16736311 70.53755497 -68.20840986 66.67325814 -68.23144531 62.80859375 C-68.24800418 60.77071716 -68.27529324 58.73289863 -68.31347656 56.6953125 C-68.36826005 53.75677368 -68.39012142 50.81959604 -68.40478516 47.88061523 C-68.42745453 46.97212326 -68.4501239 46.06363129 -68.47348022 45.12760925 C-68.45914856 40.83289663 -68.37783257 38.72552456 -65.76171875 35.19970703 C-62.69370286 32.91676827 -59.58274391 30.84405432 -56.27197266 28.93920898 C-55.63604187 28.56462051 -55.00011108 28.19003204 -54.34490967 27.80409241 C-52.27813754 26.58879996 -50.20525484 25.3844666 -48.13134766 24.18139648 C-45.23923235 22.49513881 -42.34909339 20.80551843 -39.45947266 19.11499023 C-38.73538208 18.69238419 -38.0112915 18.26977814 -37.26525879 17.83436584 C-32.61642518 15.11005463 -28.03682696 12.29599625 -23.49072266 9.40405273 C-22.3579096 8.69178433 -21.22478031 7.9800186 -20.09130859 7.26879883 C-17.99878963 5.94879941 -15.91794044 4.61005961 -13.85107422 3.25024414 C-5.380531 -2.03766621 -5.380531 -2.03766621 0 0 Z M-2.88134766 49.05639648 C-2.88134766 49.71639648 -2.88134766 50.37639648 -2.88134766 51.05639648 C-1.56134766 50.72639648 -0.24134766 50.39639648 1.11865234 50.05639648 C-0.20134766 49.72639648 -1.52134766 49.39639648 -2.88134766 49.05639648 Z M-2.50634766 110.55639648 C-2.96009766 111.05139648 -3.41384766 111.54639648 -3.88134766 112.05639648 C-2.8936438 112.37314331 -2.8936438 112.37314331 -1.88598633 112.69628906 C5.58509907 115.23355198 12.07026029 118.66910436 18.80615234 122.74389648 C20.90598087 123.98941657 23.00624283 125.2342062 25.10693359 126.47827148 C26.12480957 127.08477539 27.14268555 127.6912793 28.19140625 128.31616211 C32.27307818 130.74269735 36.3723032 133.13546444 40.49365234 135.49389648 C41.1468042 135.87698975 41.79995605 136.26008301 42.47290039 136.65478516 C43.98740298 137.51806606 45.54924616 138.29749185 47.11865234 139.05639648 C47.77865234 138.72639648 48.43865234 138.39639648 49.11865234 138.05639648 C39.01311008 131.59084395 28.74922251 125.39021144 18.44628906 119.24575806 C16.97533861 118.3680097 15.50528808 117.48875152 14.03613281 116.60800171 C11.94388234 115.35453925 9.84820827 114.1070125 7.75146484 112.86108398 C7.11250275 112.47715988 6.47354065 112.09323578 5.81521606 111.69767761 C1.59151517 108.74272032 1.59151517 108.74272032 -2.50634766 110.55639648 Z M51.11865234 140.05639648 C51.44865234 140.71639648 51.77865234 141.37639648 52.11865234 142.05639648 C52.77865234 141.72639648 53.43865234 141.39639648 54.11865234 141.05639648 C53.12865234 140.72639648 52.13865234 140.39639648 51.11865234 140.05639648 Z " fill="#ABB1E3" transform="translate(156.88134765625,60.943603515625)"/>
<path d="M0 0 C0.78238037 0.44867432 1.56476074 0.89734863 2.37084961 1.35961914 C3.09892822 1.72474609 3.82700684 2.08987305 4.57714844 2.46606445 C5.31989014 2.86921875 6.06263184 3.27237305 6.82788086 3.68774414 C7.680354 4.15035645 8.53282715 4.61296875 9.41113281 5.08959961 C10.32596436 5.59120605 11.2407959 6.0928125 12.18334961 6.60961914 C13.63390747 7.40263428 13.63390747 7.40263428 15.11376953 8.21166992 C23.20685612 12.66368043 31.18727304 17.29555697 39.14819336 21.97875977 C47.84309388 27.08376313 56.62449137 32.02187414 65.43847656 36.91772461 C66.43322998 37.47089355 67.4279834 38.0240625 68.45288086 38.59399414 C69.77122925 39.32440918 69.77122925 39.32440918 71.11621094 40.06958008 C72.90990304 41.09587884 74.65137776 42.21330458 76.37084961 43.35961914 C76.73161316 45.5362854 76.73161316 45.5362854 76.71142578 48.26831055 C76.71119919 49.28921783 76.7109726 50.31012512 76.71073914 51.36196899 C76.69525528 52.46720917 76.67977142 53.57244934 76.66381836 54.71118164 C76.65957352 55.84035004 76.65532867 56.96951843 76.6509552 58.13290405 C76.63412093 61.75038187 76.59645936 65.36730884 76.55834961 68.98461914 C76.54330894 71.43252778 76.52961947 73.88044512 76.51733398 76.32836914 C76.48420188 82.33897474 76.4339554 88.3492576 76.37084961 94.35961914 C72.29450914 92.78173217 68.60816016 90.85140212 64.86694336 88.60571289 C63.92548714 88.04620941 63.92548714 88.04620941 62.9650116 87.47540283 C60.9105886 86.25296174 58.85940904 85.02519402 56.80834961 83.79711914 C55.37860858 82.94447827 53.94875696 82.09202282 52.51879883 81.23974609 C40.75698621 74.22132465 29.04281489 67.12475427 17.34741211 59.99633789 C16.33710938 59.38709473 15.32680664 58.77785156 14.28588867 58.15014648 C12.34966422 56.96084413 10.43418342 55.73706106 8.54174805 54.47924805 C7.66808594 53.90996582 6.79442383 53.34068359 5.89428711 52.75415039 C5.13809082 52.24343994 4.38189453 51.73272949 3.6027832 51.20654297 C1.36812351 50.1111061 1.36812351 50.1111061 -1.03320312 50.99389648 C-3.96371779 52.53563438 -6.83563832 54.13325721 -9.68774414 55.81665039 C-10.26474564 56.1559256 -10.84174713 56.49520081 -11.43623352 56.84475708 C-13.31501101 57.95057021 -15.19083565 59.061289 -17.06665039 60.17211914 C-18.37474044 60.94333616 -19.68301047 61.71424796 -20.99145508 62.48486328 C-24.26512688 64.41402104 -27.53641555 66.34717618 -30.80682373 68.28186035 C-33.48227102 69.86417097 -36.15926977 71.44385037 -38.83618164 73.02368164 C-49.21952622 79.15413708 -49.21952622 79.15413708 -59.58618164 85.31274414 C-61.12132873 86.2242179 -62.6564845 87.13567705 -64.19165039 88.04711914 C-64.87646484 88.45760498 -65.5612793 88.86809082 -66.2668457 89.29101562 C-69.64759832 91.29421854 -72.96670889 92.94996454 -76.62915039 94.35961914 C-81.50884789 48.80547382 -81.50884789 48.80547382 -74.0246582 39.4206543 C-68.35982477 33.88828655 -60.87281106 31.0070219 -53.48558044 28.50244141 C-46.56327774 26.15132229 -40.6687608 22.48394742 -34.52944946 18.57055664 C-29.37318007 15.28480017 -24.1610623 12.08617347 -18.95483398 8.88037109 C-17.63260814 8.0613854 -16.31434634 7.23597142 -14.99975586 6.40478516 C-13.0608182 5.18105271 -11.10876979 3.98131552 -9.15258789 2.78540039 C-8.56923676 2.40958328 -7.98588562 2.03376617 -7.38485718 1.64656067 C-4.6101421 -0.02016731 -3.20909381 -0.78163739 0 0 Z " fill="#9DBCE8" transform="translate(154.629150390625,111.640380859375)"/>
<path d="M0 0 C9.78291502 4.58143555 19.06457194 9.87869564 28.36547852 15.36254883 C37.25109974 20.59318039 46.22455988 25.64427303 55.24145508 30.64477539 C56.24329834 31.20156982 57.2451416 31.75836426 58.27734375 32.33203125 C59.61140259 33.07030151 59.61140259 33.07030151 60.97241211 33.82348633 C63 35 63 35 64 36 C64.08871273 39.02977804 64.1151935 42.03667022 64.09765625 45.06640625 C64.0962413 45.97502914 64.09482635 46.88365204 64.09336853 47.81980896 C64.08775193 50.73407221 64.07519665 53.64825981 64.0625 56.5625 C64.05748714 58.53320202 64.05292386 60.50390524 64.04882812 62.47460938 C64.03777711 67.31643559 64.02050138 72.15820495 64 77 C60.11431825 75.55795559 56.65552258 73.74340769 53.08203125 71.6484375 C52.23205063 71.15108093 52.23205063 71.15108093 51.36489868 70.64367676 C49.51201875 69.55761958 47.66232422 68.46625209 45.8125 67.375 C44.52424179 66.61983181 43.23591078 65.8647878 41.94750977 65.10986328 C35.38978463 61.25553559 28.88270253 57.33360167 22.4453125 53.28125 C21.84915634 52.90747223 21.25300018 52.53369446 20.63877869 52.14859009 C17.79034158 50.361552 14.95233832 48.56214709 12.1262207 46.73974609 C11.11390381 46.10117676 10.10158691 45.46260742 9.05859375 44.8046875 C8.17486084 44.23733887 7.29112793 43.66999023 6.38061523 43.08544922 C4.1199221 41.81677739 4.1199221 41.81677739 1.93603516 42.18969727 C-0.1501214 43.06283139 -2.07451381 44.03095313 -4.03515625 45.16015625 C-4.83139404 45.61632324 -5.62763184 46.07249023 -6.44799805 46.54248047 C-7.31078369 47.04408691 -8.17356934 47.54569336 -9.0625 48.0625 C-10.42145386 48.84584717 -10.42145386 48.84584717 -11.80786133 49.64501953 C-21.86897664 55.46457643 -31.8652351 61.39577842 -41.85546875 67.3359375 C-43.40693604 68.25777832 -43.40693604 68.25777832 -44.98974609 69.19824219 C-46.98337767 70.39151072 -48.97082304 71.59518117 -50.95166016 72.80957031 C-52.3001001 73.63473145 -52.3001001 73.63473145 -53.67578125 74.4765625 C-54.85974487 75.20866943 -54.85974487 75.20866943 -56.06762695 75.95556641 C-58 77 -58 77 -60 77 C-64.2655588 43.45911432 -64.2655588 43.45911432 -58.96807861 34.19549561 C-53.36999886 27.32847035 -44.09072193 24.08341429 -36.10839844 20.80419922 C-29.67546821 18.08979777 -23.8072049 14.35173712 -17.85873413 10.7253418 C-14.81335411 8.88210202 -11.73225991 7.10111714 -8.65234375 5.31640625 C-5.70828594 3.60498244 -2.83387762 1.88925175 0 0 Z " fill="#8CC8EE" transform="translate(151,60)"/>
<path d="M0 0 C3.91769589 0.5926703 6.78303264 1.78370239 10.21875 3.73828125 C11.72538208 4.5888208 11.72538208 4.5888208 13.26245117 5.45654297 C14.33084229 6.06900879 15.3992334 6.68147461 16.5 7.3125 C17.60770752 7.94043457 18.71541504 8.56836914 19.85668945 9.21533203 C23.24180405 11.13660674 26.62133544 13.06740986 30 15 C31.94122238 16.1057916 33.88261753 17.21127997 35.82421875 18.31640625 C39.31455339 20.30450036 42.79954375 22.30152798 46.28125 24.3046875 C49.28531874 26.02983249 52.30284542 27.72349971 55.34375 29.3828125 C55.99964111 29.74455566 56.65553223 30.10629883 57.33129883 30.47900391 C59.04347837 31.42078148 60.76171162 32.35153084 62.48046875 33.28125 C65.19068029 35.13007647 65.81141828 36.02892587 67 39 C67.25396729 40.97265625 67.25396729 40.97265625 67.25878906 43.0625 C67.26509338 43.85011719 67.27139771 44.63773438 67.27789307 45.44921875 C67.27182037 46.71185547 67.27182037 46.71185547 67.265625 48 C67.26753845 48.87269531 67.2694519 49.74539062 67.27142334 50.64453125 C67.27278244 52.48698211 67.26910518 54.32944262 67.26074219 56.171875 C67.25003873 58.98980243 67.26064672 61.80709236 67.2734375 64.625 C67.27211586 66.41666807 67.26955336 68.20833575 67.265625 70 C67.26967346 70.84175781 67.27372192 71.68351562 67.27789307 72.55078125 C67.26843658 73.73220703 67.26843658 73.73220703 67.25878906 74.9375 C67.25719788 75.62714844 67.25560669 76.31679687 67.25396729 77.02734375 C66.95049075 79.38455635 66.23885217 80.97932144 65 83 C64.01 83.495 64.01 83.495 63 84 C63.57032959 84.32274902 64.14065918 84.64549805 64.72827148 84.97802734 C67.30120286 86.43814818 69.86937168 87.90644914 72.4375 89.375 C73.33533203 89.88289063 74.23316406 90.39078125 75.15820312 90.9140625 C76.01220703 91.40390625 76.86621094 91.89375 77.74609375 92.3984375 C78.53685303 92.84880371 79.3276123 93.29916992 80.14233398 93.76318359 C82 95 82 95 83 97 C83.10059457 98.68454289 83.1383549 100.37301723 83.14526367 102.06054688 C83.15164352 103.11504028 83.15802338 104.16953369 83.16459656 105.25598145 C83.16626579 106.97005188 83.16626579 106.97005188 83.16796875 108.71875 C83.17129715 109.88756714 83.17462555 111.05638428 83.17805481 112.26062012 C83.18312445 114.73542893 83.18546312 117.21024459 83.18530273 119.68505859 C83.18749088 123.48416309 83.20565104 127.28297812 83.22460938 131.08203125 C83.22754287 133.48176984 83.22952796 135.88150981 83.23046875 138.28125 C83.23765427 139.42396362 83.24483978 140.56667725 83.25224304 141.74401855 C83.24916641 142.79851196 83.24608978 143.85300537 83.24291992 144.93945312 C83.24434494 145.8705188 83.24576996 146.80158447 83.24723816 147.76086426 C83 150 83 150 81 152 C73.70018872 153.31572032 68.7944036 149.35244977 62.8125 145.5625 C61.15429886 144.53957249 59.49608408 143.51666663 57.83724976 142.49476624 C56.08574773 141.41267712 54.33866865 140.32372602 52.59228516 139.23339844 C48.98729331 136.98647252 45.36215274 134.7737747 41.73046875 132.5703125 C41.13068207 132.20631348 40.53089539 131.84231445 39.91293335 131.46728516 C36.92133008 129.65298938 33.92810256 127.84138413 30.93457031 126.03027344 C25.81220706 122.92952645 20.69780252 119.82051862 15.62890625 116.6328125 C14.10683315 115.69260745 12.58470318 114.75249444 11.0625 113.8125 C10.40121094 113.38412842 9.73992187 112.95575684 9.05859375 112.5144043 C7.05197305 111.23211488 7.05197305 111.23211488 4 110 C0.31269109 111.12441 -2.83328788 112.9869841 -6.11328125 114.984375 C-7.10183105 115.58282227 -8.09038086 116.18126953 -9.10888672 116.79785156 C-10.69467529 117.76416504 -10.69467529 117.76416504 -12.3125 118.75 C-14.57089915 120.11578906 -16.82982917 121.48064148 -19.08984375 122.84375 C-19.66482605 123.19085022 -20.23980835 123.53795044 -20.83221436 123.89556885 C-29.55063995 129.15082423 -38.36270117 134.24583042 -47.16943359 139.35107422 C-49.97091557 140.98305708 -52.7620048 142.63157235 -55.55078125 144.28515625 C-56.41977051 144.79723633 -57.28875977 145.30931641 -58.18408203 145.83691406 C-59.80162799 146.79034177 -61.41612259 147.74897398 -63.02685547 148.71386719 C-69.86284156 152.72418944 -69.86284156 152.72418944 -74 153 C-74.99 152.67 -75.98 152.34 -77 152 C-78.26372044 149.47255912 -78.12022795 147.73619692 -78.11352539 144.90771484 C-78.11344986 143.84676605 -78.11337433 142.78581726 -78.11329651 141.69271851 C-78.10813522 140.54373077 -78.10297394 139.39474304 -78.09765625 138.2109375 C-78.0962413 137.03737701 -78.09482635 135.86381653 -78.09336853 134.6546936 C-78.08775689 130.89477015 -78.07520238 127.13490555 -78.0625 123.375 C-78.0574865 120.83073002 -78.05292333 118.28645912 -78.04882812 115.7421875 C-78.03778368 109.49477147 -78.02103418 103.24738994 -78 97 C-77.01 96.505 -77.01 96.505 -76 96 C-76 112.17 -76 128.34 -76 145 C-61.56536343 136.59394694 -47.15170781 128.15593472 -32.77929688 119.64404297 C-29.85990315 117.91712824 -26.93805341 116.19443001 -24.015625 114.47265625 C-22.53666748 113.60072632 -22.53666748 113.60072632 -21.02783203 112.71118164 C-19.15426078 111.60673581 -17.28026777 110.503005 -15.40576172 109.40014648 C-14.55256348 108.89684814 -13.69936523 108.3935498 -12.8203125 107.875 C-12.0046582 107.39804688 -11.18900391 106.92109375 -10.34863281 106.4296875 C-8.79213995 105.48220079 -7.26365828 104.48697767 -5.76855469 103.4453125 C-5.07922852 102.96835938 -4.38990234 102.49140625 -3.6796875 102 C-3.08655762 101.566875 -2.49342773 101.13375 -1.88232422 100.6875 C0 100 0 100 2.36450195 100.66772461 C5.25458401 102.12869522 8.05488074 103.67609873 10.84765625 105.31640625 C11.68868645 105.8089817 11.68868645 105.8089817 12.54670715 106.31150818 C14.38754065 107.39141825 16.22512551 108.47671671 18.0625 109.5625 C19.35364165 110.32232806 20.64482062 111.08209269 21.93603516 111.84179688 C33.16260262 118.45925143 44.30696022 125.20982143 55.4296875 132 C62.60032203 136.36547548 69.80138005 140.68082803 77 145 C77 128.17 77 111.34 77 94 C75.35 93.34 73.7 92.68 72 92 C70.28065956 91.10624743 68.57690958 90.18209867 66.88671875 89.234375 C65.89833008 88.68120605 64.90994141 88.12803711 63.89160156 87.55810547 C62.83424805 86.96143066 61.77689453 86.36475586 60.6875 85.75 C59.58245117 85.12883301 58.47740234 84.50766602 57.33886719 83.86767578 C48.77748468 79.03958155 40.2749127 74.11388362 31.7956543 69.14306641 C21.90965909 63.34808293 11.96187894 57.66330302 2 52 C2.495 51.01 2.495 51.01 3 50 C-1.51886844 50.5706258 -4.89427426 52.46277044 -8.71484375 54.796875 C-9.3589772 55.18250107 -10.00311066 55.56812714 -10.66676331 55.96543884 C-12.04602734 56.79233582 -13.42333013 57.62251142 -14.79882812 58.45565796 C-16.95101352 59.7581785 -19.10930781 61.04997215 -21.26953125 62.33911133 C-27.7827707 66.23092186 -34.27207247 70.15753099 -40.72265625 74.15234375 C-41.71080322 74.7565918 -42.6989502 75.36083984 -43.71704102 75.98339844 C-45.51989032 77.08734511 -47.31404929 78.20566353 -49.09741211 79.34082031 C-54.38374613 82.56278495 -57.80202337 83.60416057 -64 83 C-65.14601494 80.70797012 -65.13237239 79.4054331 -65.14526367 76.85742188 C-65.15483345 75.57599304 -65.15483345 75.57599304 -65.16459656 74.26867676 C-65.16570938 73.34470093 -65.1668222 72.4207251 -65.16796875 71.46875 C-65.17129715 70.52189331 -65.17462555 69.57503662 -65.17805481 68.5994873 C-65.18312246 66.59546394 -65.18546319 64.59143211 -65.18530273 62.58740234 C-65.18749106 59.51255497 -65.20565354 56.43806519 -65.22460938 53.36328125 C-65.22754289 51.41927207 -65.22952797 49.47526117 -65.23046875 47.53125 C-65.23765427 46.60727417 -65.24483978 45.68329834 -65.25224304 44.73132324 C-65.24916641 43.87703735 -65.24608978 43.02275146 -65.24291992 42.14257812 C-65.24434494 41.38916138 -65.24576996 40.63574463 -65.24723816 39.85949707 C-65 38 -65 38 -63 36 C-63 49.2 -63 62.4 -63 76 C-46.61538647 66.45395376 -46.61538647 66.45395376 -30.25 56.875 C-29.59435059 56.49190674 -28.93870117 56.10881348 -28.26318359 55.71411133 C-24.35882151 53.42320434 -20.49618682 51.07481774 -16.65234375 48.68359375 C-15.74387695 48.12365723 -14.83541016 47.5637207 -13.89941406 46.98681641 C-12.12532142 45.89150426 -10.35742453 44.78607633 -8.59667969 43.66943359 C-7.79520508 43.17652832 -6.99373047 42.68362305 -6.16796875 42.17578125 C-5.45922607 41.73145752 -4.7504834 41.28713379 -4.02026367 40.8293457 C-1.44431636 39.77188431 -0.57295056 39.97375277 2 41 C3.94433836 42.02191468 5.85775161 43.10333201 7.75 44.21875 C8.59403633 44.7139917 8.59403633 44.7139917 9.4551239 45.21923828 C11.30648566 46.30770824 13.15329801 47.40364581 15 48.5 C16.28607442 49.25870052 17.57229059 50.01716081 18.85864258 50.77539062 C29.40509769 57.0044847 39.88493253 63.34398085 50.33789062 69.72851562 C51.44712891 70.40591797 52.55636719 71.08332031 53.69921875 71.78125 C54.67721436 72.38001953 55.65520996 72.97878906 56.6628418 73.59570312 C58.91299014 74.9887135 58.91299014 74.9887135 61 76 C63.87809917 53.16128562 63.87809917 53.16128562 57.95019531 31.94189453 C52.34667251 27.15647343 45.61337989 24.85877009 38.73291016 22.45361328 C32.67369191 20.22639052 27.23154083 16.76604611 21.70986938 13.46560669 C18.80448006 11.73870609 15.86625189 10.07177161 12.9296875 8.3984375 C11.89682617 7.80643555 10.86396484 7.21443359 9.79980469 6.60449219 C6.53484997 4.73343512 3.26785207 2.86599089 0 1 C0 0.67 0 0.34 0 0 Z " fill="#000000" transform="translate(154,61)"/>
<path d="M0 0 C7.34121569 2.13180496 13.35536004 5.29939696 19.875 9.25 C30.17298325 15.38265291 40.58069176 21.26279295 51.08935547 27.02441406 C65.47082414 34.94164827 65.47082414 34.94164827 67 38 C67.09412461 39.37832271 67.12793566 40.76104607 67.12939453 42.14257812 C67.13254669 42.99686401 67.13569885 43.8511499 67.13894653 44.73132324 C67.13591019 46.11728699 67.13591019 46.11728699 67.1328125 47.53125 C67.13376923 48.47810669 67.13472595 49.42496338 67.13571167 50.4005127 C67.13639286 52.40454169 67.1345428 54.40857289 67.13037109 56.41259766 C67.125022 59.4873549 67.13031814 62.56196607 67.13671875 65.63671875 C67.13605796 67.58072949 67.13477677 69.52474014 67.1328125 71.46875 C67.13483673 72.39272583 67.13686096 73.31670166 67.13894653 74.26867676 C67.13421829 75.55010559 67.13421829 75.55010559 67.12939453 76.85742188 C67.12859894 77.61083862 67.12780334 78.36425537 67.12698364 79.14050293 C67 81 67 81 66 83 C62.97568281 84.05696545 61.41110571 84.14444564 58.36791992 83.07519531 C51.12783626 79.23834517 44.06785042 75.15516726 37.09698486 70.8505249 C35.2720018 69.72502401 33.44219179 68.60778005 31.61083984 67.49267578 C26.26095561 64.23354787 20.92335518 60.95658212 15.61328125 57.6328125 C14.11740646 56.7131854 12.62133287 55.79388155 11.125 54.875 C10.47313721 54.45573242 9.82127441 54.03646484 9.1496582 53.60449219 C6.28048393 51.8599362 4.50004727 50.9588713 1.10888672 51.23779297 C-2.05464318 52.01339689 -4.27613616 53.03755125 -7.0625 54.703125 C-8.01374756 55.26523682 -8.96499512 55.82734863 -9.94506836 56.40649414 C-10.9531958 57.01485107 -11.96132324 57.62320801 -13 58.25 C-14.05002197 58.87318115 -15.10004395 59.4963623 -16.18188477 60.13842773 C-18.36983701 61.43782653 -20.55544057 62.74118762 -22.73876953 64.04833984 C-26.85162087 66.50964645 -30.97660398 68.95005888 -35.10351562 71.38769531 C-36.93822591 72.47195725 -38.77164696 73.55840495 -40.60351562 74.64746094 C-43.06370285 76.10754907 -45.53110934 77.55469169 -48 79 C-49.22891968 79.73585327 -49.22891968 79.73585327 -50.48266602 80.48657227 C-51.27213623 80.94733154 -52.06160645 81.40809082 -52.875 81.8828125 C-53.92107422 82.5018042 -53.92107422 82.5018042 -54.98828125 83.13330078 C-58.29781789 84.55913271 -60.59257444 83.94247941 -64 83 C-65.30017447 79.0994766 -65.1624845 75.382416 -65.16796875 71.31640625 C-65.17129715 70.46449203 -65.17462555 69.61257782 -65.17805481 68.73484802 C-65.18311606 66.93350769 -65.18546338 65.13215799 -65.18530273 63.33081055 C-65.18748889 60.57650294 -65.20565199 57.8225961 -65.22460938 55.06835938 C-65.22754353 53.3177097 -65.22952818 51.56705813 -65.23046875 49.81640625 C-65.23765427 48.99338516 -65.24483978 48.17036407 -65.25224304 47.32240295 C-65.23534146 43.08785203 -64.93759289 40.87518577 -63 37 C-63 50.2 -63 63.4 -63 77 C-54.92717146 72.21460344 -54.92717146 72.21460344 -46.85449219 67.42895508 C-41.16159462 64.05492126 -35.46724303 60.6835054 -29.765625 57.32421875 C-28.81631104 56.76444336 -27.86699707 56.20466797 -26.88891602 55.62792969 C-25.06254582 54.55220877 -23.23492921 53.4786009 -21.40600586 52.40722656 C-17.52700798 50.12687015 -13.68265123 47.82503293 -9.92578125 45.34765625 C-9.32556152 44.95642578 -8.7253418 44.56519531 -8.10693359 44.16210938 C-6.58023447 43.15651522 -5.06856112 42.12820385 -3.55859375 41.09765625 C-1 40 -1 40 1.22045898 40.67700195 C4.60782372 42.28931021 7.81813377 44.14163555 11.03125 46.0703125 C11.70361694 46.47023407 12.37598389 46.87015564 13.06872559 47.28219604 C15.21449673 48.55978791 17.35720869 49.8424181 19.5 51.125 C20.90867086 51.96384956 22.31752352 52.80239392 23.7265625 53.640625 C30.1066348 57.44171295 36.46495616 61.27345924 42.78125 65.1796875 C48.79248074 68.89656257 54.87735 72.46982342 61 76 C64.07087438 52.98857884 64.07087438 52.98857884 57.68945312 31.81152344 C52.03436671 27.20472458 45.46776686 24.56704436 38.65028381 22.13975525 C31.78214344 19.68997726 25.83885074 16.0598923 19.625 12.25 C17.68178112 11.10581186 15.73661772 9.96491644 13.7890625 8.828125 C11.2947612 7.35971773 8.81033026 5.88327479 6.34521484 4.36621094 C4.17473115 3.10179008 2.4514404 2.45397044 0 2 C0 1.34 0 0.68 0 0 Z " fill="#000001" transform="translate(155,173)"/>
<path d="M0 0 C0.66 0 1.32 0 2 0 C2 16.83 2 33.66 2 51 C-2.1197025 49.352119 -5.7307193 47.51097326 -9.50390625 45.24609375 C-10.44536247 44.68659027 -10.44536247 44.68659027 -11.40583801 44.11578369 C-13.46026101 42.8933426 -15.51144057 41.66557488 -17.5625 40.4375 C-18.99224103 39.58485913 -20.42209265 38.73240368 -21.85205078 37.88012695 C-33.6138634 30.86170551 -45.32803472 23.76513513 -57.0234375 16.63671875 C-58.5388916 15.722854 -58.5388916 15.722854 -60.08496094 14.79052734 C-62.02118539 13.60122499 -63.93666619 12.37744192 -65.82910156 11.11962891 C-66.70276367 10.55034668 -67.57642578 9.98106445 -68.4765625 9.39453125 C-69.61085693 8.62846558 -69.61085693 8.62846558 -70.76806641 7.84692383 C-73.0027261 6.75148696 -73.0027261 6.75148696 -75.40405273 7.63427734 C-78.3345674 9.17601524 -81.20648793 10.77363807 -84.05859375 12.45703125 C-84.92409599 12.96594406 -84.92409599 12.96594406 -85.80708313 13.48513794 C-87.68586062 14.59095107 -89.56168526 15.70166986 -91.4375 16.8125 C-92.74559005 17.58371702 -94.05386008 18.35462882 -95.36230469 19.12524414 C-98.63597649 21.0544019 -101.90726516 22.98755704 -105.17767334 24.92224121 C-107.85312063 26.50455183 -110.53011938 28.08423123 -113.20703125 29.6640625 C-123.59037583 35.79451793 -123.59037583 35.79451793 -133.95703125 41.953125 C-135.49217834 42.86459875 -137.02733411 43.77605791 -138.5625 44.6875 C-139.24731445 45.09798584 -139.93212891 45.50847168 -140.63769531 45.93139648 C-144.00843401 47.92866583 -147.30867375 49.67509019 -151 51 C-151 47 -151 47 -148.5 44.3125 C-142.86485237 39.78609338 -136.3169925 36.55528934 -129.99511719 33.10498047 C-127.10566567 31.50467974 -124.27516433 29.81544739 -121.4375 28.125 C-117.35976494 25.73118792 -113.37799501 23.76803644 -109 22 C-106.88733099 20.94560372 -104.79015182 19.86634683 -102.69921875 18.76953125 C-101 18 -101 18 -99 18 C-98.505 16.515 -98.505 16.515 -98 15 C-92.02036791 10.03383222 -83.17086795 4.3125 -75.25 4.3125 C-72.953125 4.58984375 -72.953125 4.58984375 -71 5 C-70.01 5.12375 -69.02 5.2475 -68 5.375 C-66 6 -66 6 -64 8 C-61.68351201 9.03842565 -59.35096976 10.0421975 -57 11 C-57 11.66 -57 12.32 -57 13 C-56.13375 13.1546875 -56.13375 13.1546875 -55.25 13.3125 C-52.65708532 14.10477948 -51.15204226 15.36966495 -49 17 C-47.35202764 17.71162443 -45.68834592 18.39031953 -44 19 C-44 19.66 -44 20.32 -44 21 C-43.195625 21.226875 -42.39125 21.45375 -41.5625 21.6875 C-37.83120261 23.06218851 -34.58544786 24.80346158 -31.1484375 26.78125 C-29.12894267 27.92685434 -27.08560018 28.98079267 -25 30 C-25 30.66 -25 31.32 -25 32 C-24.01 32 -23.02 32 -22 32 C-19.8125 33.875 -19.8125 33.875 -18 36 C-18 36.66 -18 37.32 -18 38 C-17.13375 38.103125 -16.2675 38.20625 -15.375 38.3125 C-11.83316877 39.03398414 -9.15687958 40.27123261 -6 42 C-6 42.66 -6 43.32 -6 44 C-4.68 44.33 -3.36 44.66 -2 45 C-2 41.98941181 -2.02530713 38.97946432 -2.05130005 35.9690094 C-2.07788801 32.56538783 -2.0942772 29.16174443 -2.10986328 25.75805664 C-2.11994451 23.96278549 -2.13360938 22.16753085 -2.15087891 20.37231445 C-2.1751461 17.7807209 -2.18648329 15.18934269 -2.1953125 12.59765625 C-2.20563507 11.79650894 -2.21595764 10.99536163 -2.22659302 10.16993713 C-2.22737035 6.30644077 -2.20758604 3.26882056 0 0 Z " fill="#8898BF" transform="translate(229,155)"/>
<path d="M0 0 C0.99 0.495 0.99 0.495 2 1 C2 14.53 2 28.06 2 42 C-1.96577612 40.41368955 -5.26455207 38.79026418 -8.91796875 36.6484375 C-9.76794937 36.15108093 -9.76794937 36.15108093 -10.63510132 35.64367676 C-12.48798125 34.55761958 -14.33767578 33.46625209 -16.1875 32.375 C-17.47575821 31.61983181 -18.76408922 30.8647878 -20.05249023 30.10986328 C-26.61021537 26.25553559 -33.11729747 22.33360167 -39.5546875 18.28125 C-40.15084366 17.90747223 -40.74699982 17.53369446 -41.36122131 17.14859009 C-44.20965842 15.361552 -47.04766168 13.56214709 -49.8737793 11.73974609 C-50.88609619 11.10117676 -51.89841309 10.46260742 -52.94140625 9.8046875 C-53.82513916 9.23733887 -54.70887207 8.66999023 -55.61938477 8.08544922 C-57.8800779 6.81677739 -57.8800779 6.81677739 -60.06396484 7.18969727 C-62.1501214 8.06283139 -64.07451381 9.03095313 -66.03515625 10.16015625 C-66.83139404 10.61632324 -67.62763184 11.07249023 -68.44799805 11.54248047 C-69.31078369 12.04408691 -70.17356934 12.54569336 -71.0625 13.0625 C-71.96846924 13.58473145 -72.87443848 14.10696289 -73.80786133 14.64501953 C-83.86897664 20.46457643 -93.8652351 26.39577842 -103.85546875 32.3359375 C-104.88978027 32.95049805 -105.9240918 33.56505859 -106.98974609 34.19824219 C-108.98337767 35.39151072 -110.97082304 36.59518117 -112.95166016 37.80957031 C-113.85062012 38.35967773 -114.74958008 38.90978516 -115.67578125 39.4765625 C-116.46509033 39.96463379 -117.25439941 40.45270508 -118.06762695 40.95556641 C-120 42 -120 42 -122 42 C-120.4972742 37.79236776 -117.76667005 36.1972242 -114 34 C-113.34 34 -112.68 34 -112 34 C-112 33.34 -112 32.68 -112 32 C-111.39671875 31.68546875 -110.7934375 31.3709375 -110.171875 31.046875 C-105.23766638 28.47192378 -105.23766638 28.47192378 -101 24.9375 C-99.00294268 23.00285072 -97.76881953 22.36358635 -95.25 21.3125 C-90.52099155 19.33548978 -86.09172295 16.93812274 -81.625 14.4375 C-80.9227832 14.04925049 -80.22056641 13.66100098 -79.49707031 13.26098633 C-78.83030273 12.88482178 -78.16353516 12.50865723 -77.4765625 12.12109375 C-76.5805835 11.61727173 -76.5805835 11.61727173 -75.66650391 11.10327148 C-73.93541234 10.04205795 -73.93541234 10.04205795 -72.50927734 8.46899414 C-70.10683251 6.1306715 -67.07040129 5.25090423 -64 4 C-63.67 3.67 -63.34 3.34 -63 3 C-60.66055264 3.28730055 -58.3260857 3.61936779 -56 4 C-56 4.66 -56 5.32 -56 6 C-55.2575 5.938125 -54.515 5.87625 -53.75 5.8125 C-50.49665015 6.03431931 -49.45698908 6.9525091 -47 9 C-46.01 9.33 -45.02 9.66 -44 10 C-44 10.66 -44 11.32 -44 12 C-43.175 12.226875 -42.35 12.45375 -41.5 12.6875 C-37.33490514 14.24941057 -33.4999057 16.22850107 -30 19 C-30 19.66 -30 20.32 -30 21 C-29.2575 21.103125 -28.515 21.20625 -27.75 21.3125 C-24.72230434 22.06942391 -23.42333423 23.07558753 -21 25 C-16.11001258 27.91518481 -11.10894855 30.49034106 -6 33 C-6 33.66 -6 34.32 -6 35 C-4.68 34.67 -3.36 34.34 -2 34 C-2.08378906 32.85144531 -2.16757813 31.70289062 -2.25390625 30.51953125 C-2.88237393 21.20212079 -3.06816113 12.30121844 -2 3 C-1.34 3 -0.68 3 0 3 C0 2.01 0 1.02 0 0 Z " fill="#7C90B7" transform="translate(213,95)"/>
<path d="M0 0 C1.68145439 0.69751715 3.32101261 1.49449068 4.94921875 2.30859375 C4.94921875 2.96859375 4.94921875 3.62859375 4.94921875 4.30859375 C6.26921875 4.63859375 7.58921875 4.96859375 8.94921875 5.30859375 C8.94921875 5.96859375 8.94921875 6.62859375 8.94921875 7.30859375 C10.59921875 7.30859375 12.24921875 7.30859375 13.94921875 7.30859375 C14.44421875 8.29859375 14.44421875 8.29859375 14.94921875 9.30859375 C16.43789151 10.23725539 17.96476581 11.10564711 19.51171875 11.93359375 C20.33800781 12.37960938 21.16429687 12.825625 22.015625 13.28515625 C22.65371094 13.62289062 23.29179687 13.960625 23.94921875 14.30859375 C23.94921875 14.96859375 23.94921875 15.62859375 23.94921875 16.30859375 C26.91921875 17.29859375 29.88921875 18.28859375 32.94921875 19.30859375 C32.94921875 19.96859375 32.94921875 20.62859375 32.94921875 21.30859375 C34.92921875 21.96859375 36.90921875 22.62859375 38.94921875 23.30859375 C38.94921875 23.96859375 38.94921875 24.62859375 38.94921875 25.30859375 C39.85671875 25.39109375 40.76421875 25.47359375 41.69921875 25.55859375 C45.34999714 26.40108107 46.58306458 27.48740993 48.94921875 30.30859375 C46.16648021 31.10431596 44.52209765 31.52618096 41.7746582 30.48266602 C41.044646 30.03463623 40.31463379 29.58660645 39.5625 29.125 C38.71872803 28.61654541 37.87495605 28.10809082 37.00561523 27.58422852 C35.64738647 26.73622681 35.64738647 26.73622681 34.26171875 25.87109375 C33.31433838 25.29866943 32.36695801 24.72624512 31.39086914 24.13647461 C26.44690393 21.13611248 21.55074068 18.06406306 16.67909241 14.94813538 C14.32850835 13.44715662 11.97026667 11.95842002 9.61190796 10.46969604 C7.90438981 9.3823467 6.21182025 8.27404763 4.51879883 7.16430664 C3.47361084 6.50164795 2.42842285 5.83898926 1.3515625 5.15625 C-0.03301147 4.25918335 -0.03301147 4.25918335 -1.44555664 3.34399414 C-3.9914247 2.03948023 -3.9914247 2.03948023 -6.52075195 2.92114258 C-7.35566162 3.37900146 -8.19057129 3.83686035 -9.05078125 4.30859375 C-9.9752002 4.81471191 -10.89961914 5.32083008 -11.85205078 5.84228516 C-12.86895996 6.44218262 -13.88586914 7.04208008 -14.93359375 7.66015625 C-15.49769455 7.99168198 -16.06179535 8.3232077 -16.64299011 8.66477966 C-18.48925659 9.75102501 -20.33253322 10.84223562 -22.17578125 11.93359375 C-23.45841522 12.68964707 -24.74121368 13.44542141 -26.02416992 14.20092773 C-30.03600545 16.56514691 -34.04356306 18.93655978 -38.05078125 21.30859375 C-39.38457589 22.0975391 -40.71839729 22.8864392 -42.05224609 23.67529297 C-49.7227364 28.21247199 -57.38882351 32.75701827 -65.05078125 37.30859375 C-65.54578125 35.82359375 -65.54578125 35.82359375 -66.05078125 34.30859375 C-59.6830114 29.29264096 -52.95408629 24.18255803 -45.33203125 21.26953125 C-42.88395046 20.49800421 -42.88395046 20.49800421 -41.73828125 18.18359375 C-41.39796875 17.25546875 -41.39796875 17.25546875 -41.05078125 16.30859375 C-39.07078125 16.30859375 -37.09078125 16.30859375 -35.05078125 16.30859375 C-35.01855469 15.71820313 -34.98632812 15.1278125 -34.953125 14.51953125 C-33.5337419 11.04173542 -30.95333116 10.46519898 -27.61328125 8.93359375 C-23.08563981 6.82188519 -18.85755398 4.63067232 -14.67578125 1.87109375 C-9.58928348 -1.24240898 -5.83466741 -1.96711644 0 0 Z " fill="#8D92BD" transform="translate(160.05078125,211.69140625)"/>
<path d="M0 0 C0.66 0 1.32 0 2 0 C2 16.83 2 33.66 2 51 C-2.26431989 49.29427204 -6.01425582 47.34380673 -9.92578125 45 C-10.58668259 44.60767685 -11.24758392 44.2153537 -11.92851257 43.81114197 C-14.05891815 42.54475668 -16.18594484 41.2728389 -18.3125 40 C-19.76626417 39.13222295 -21.22004022 38.2644658 -22.67382812 37.39672852 C-26.78706539 34.93863624 -30.89433172 32.47070745 -35 30 C-36.0111084 29.39269043 -37.0222168 28.78538086 -38.06396484 28.15966797 C-40.38220386 26.76211716 -42.69343368 25.35420524 -45 23.9375 C-45.63848877 23.55142578 -46.27697754 23.16535156 -46.93481445 22.76757812 C-48.32626521 21.90091112 -49.6709525 20.95962475 -51 20 C-51 19.34 -51 18.68 -51 18 C-48.69 18.33 -46.38 18.66 -44 19 C-44 19.66 -44 20.32 -44 21 C-43.195625 21.226875 -42.39125 21.45375 -41.5625 21.6875 C-37.83120261 23.06218851 -34.58544786 24.80346158 -31.1484375 26.78125 C-29.12894267 27.92685434 -27.08560018 28.98079267 -25 30 C-25 30.66 -25 31.32 -25 32 C-24.01 32 -23.02 32 -22 32 C-19.8125 33.875 -19.8125 33.875 -18 36 C-18 36.66 -18 37.32 -18 38 C-17.13375 38.103125 -16.2675 38.20625 -15.375 38.3125 C-11.83316877 39.03398414 -9.15687958 40.27123261 -6 42 C-6 42.66 -6 43.32 -6 44 C-4.68 44.33 -3.36 44.66 -2 45 C-2 41.98941181 -2.02530713 38.97946432 -2.05130005 35.9690094 C-2.07788801 32.56538783 -2.0942772 29.16174443 -2.10986328 25.75805664 C-2.11994451 23.96278549 -2.13360938 22.16753085 -2.15087891 20.37231445 C-2.1751461 17.7807209 -2.18648329 15.18934269 -2.1953125 12.59765625 C-2.20563507 11.79650894 -2.21595764 10.99536163 -2.22659302 10.16993713 C-2.22737035 6.30644077 -2.20758604 3.26882056 0 0 Z " fill="#9F8CC0" transform="translate(229,155)"/>
<path d="M0 0 C-0.58563721 0.3403125 -1.17127441 0.680625 -1.7746582 1.03125 C-14.00262546 8.14089057 -26.20814279 15.28635238 -38.375 22.5 C-39.48399658 23.15742187 -40.59299316 23.81484375 -41.7355957 24.4921875 C-42.7999585 25.12382813 -43.86432129 25.75546875 -44.9609375 26.40625 C-45.97639648 27.00824219 -46.99185547 27.61023438 -48.03808594 28.23046875 C-50.01155538 29.40947522 -51.97842226 30.59960474 -53.93847656 31.80078125 C-54.83791992 32.35121094 -55.73736328 32.90164062 -56.6640625 33.46875 C-57.45506348 33.95794922 -58.24606445 34.44714844 -59.06103516 34.95117188 C-61 36 -61 36 -63 36 C-61.4972742 31.79236776 -58.76667005 30.1972242 -55 28 C-54.34 28 -53.68 28 -53 28 C-53 27.34 -53 26.68 -53 26 C-52.39671875 25.68546875 -51.7934375 25.3709375 -51.171875 25.046875 C-46.23766638 22.47192378 -46.23766638 22.47192378 -42 18.9375 C-39.49201856 16.50789298 -36.96229966 15.59737556 -33.76171875 14.26953125 C-30.35798693 12.70487377 -27.16247077 10.83428919 -23.9375 8.9375 C-12.05076338 2 -12.05076338 2 -6 2 C-6 1.34 -6 0.68 -6 0 C-3 -1 -3 -1 0 0 Z " fill="#67B0CE" transform="translate(154,101)"/>
<path d="M0 0 C2.64 0.99 5.28 1.98 8 3 C8 3.66 8 4.32 8 5 C9.32 5.33 10.64 5.66 12 6 C12 6.66 12 7.32 12 8 C13.65 8 15.3 8 17 8 C17.33 8.66 17.66 9.32 18 10 C19.48867276 10.92866164 21.01554706 11.79705336 22.5625 12.625 C23.38878906 13.07101563 24.21507812 13.51703125 25.06640625 13.9765625 C25.70449219 14.31429687 26.34257812 14.65203125 27 15 C27 15.66 27 16.32 27 17 C29.97 17.99 32.94 18.98 36 20 C36 20.66 36 21.32 36 22 C37.98 22.66 39.96 23.32 42 24 C42 24.66 42 25.32 42 26 C42.9075 26.0825 43.815 26.165 44.75 26.25 C48.40077839 27.09248732 49.63384583 28.17881618 52 31 C49.1430683 31.83315354 47.54324848 32.2128702 44.73022461 31.1105957 C43.96202393 30.63710693 43.19382324 30.16361816 42.40234375 29.67578125 C41.52723145 29.14710449 40.65211914 28.61842773 39.75048828 28.07373047 C38.82220215 27.49252441 37.89391602 26.91131836 36.9375 26.3125 C34.97538305 25.11308062 33.01314045 23.91386676 31.05078125 22.71484375 C29.55345459 21.79034424 29.55345459 21.79034424 28.02587891 20.84716797 C25.07466132 19.0455775 22.09845624 17.29755062 19.10546875 15.56640625 C18.1832251 15.02910889 17.26098145 14.49181152 16.31079102 13.93823242 C14.54312738 12.90938502 12.77155679 11.88721627 10.99584961 10.87231445 C10.20573486 10.40656006 9.41562012 9.94080566 8.6015625 9.4609375 C7.90369629 9.05665527 7.20583008 8.65237305 6.48681641 8.23583984 C5.99616699 7.8280127 5.50551758 7.42018555 5 7 C5 6.01 5 5.02 5 4 C2.525 3.01 2.525 3.01 0 2 C0 1.34 0 0.68 0 0 Z " fill="#968BBC" transform="translate(157,211)"/>
<path d="M0 0 C0.66 0.33 1.32 0.66 2 1 C1.67 1.66 1.34 2.32 1 3 C0.01 3 -0.98 3 -2 3 C-2 3.66 -2 4.32 -2 5 C-3.65 5.33 -5.3 5.66 -7 6 C-7 6.66 -7 7.32 -7 8 C-8.32 8 -9.64 8 -11 8 C-11 8.66 -11 9.32 -11 10 C-11.99 10 -12.98 10 -14 10 C-14 10.66 -14 11.32 -14 12 C-15.65 12.33 -17.3 12.66 -19 13 C-19 13.66 -19 14.32 -19 15 C-20.65 15.33 -22.3 15.66 -24 16 C-24 16.66 -24 17.32 -24 18 C-25.32 18.33 -26.64 18.66 -28 19 C-28 19.99 -28 20.98 -28 22 C-30.43442921 23.71476218 -32.80072379 25.21480731 -35.375 26.6875 C-36.07367188 27.10322266 -36.77234375 27.51894531 -37.4921875 27.94726562 C-42.70539563 31 -42.70539563 31 -45 31 C-45 27 -45 27 -42.5 24.3125 C-36.86485237 19.78609338 -30.3169925 16.55528934 -23.99511719 13.10498047 C-21.10566567 11.50467974 -18.27516433 9.81544739 -15.4375 8.125 C-11.37151165 5.73291718 -7.36725773 3.76548717 -3 2 C-2.01 1.34 -1.02 0.68 0 0 Z " fill="#7FB8DA" transform="translate(123,175)"/>
<path d="M0 0 C2.33944736 0.28730055 4.6739143 0.61936779 7 1 C7 1.66 7 2.32 7 3 C7.7425 2.938125 8.485 2.87625 9.25 2.8125 C12.50334985 3.03431931 13.54301092 3.9525091 16 6 C16.99 6.33 17.98 6.66 19 7 C19 7.66 19 8.32 19 9 C19.825 9.226875 20.65 9.45375 21.5 9.6875 C25.66509486 11.24941057 29.5000943 13.22850107 33 16 C33 16.66 33 17.32 33 18 C33.804375 18.12375 34.60875 18.2475 35.4375 18.375 C36.7059375 18.684375 36.7059375 18.684375 38 19 C38.495 19.99 38.495 19.99 39 21 C38.67 21.66 38.34 22.32 38 23 C33.84082925 21.49634081 30.28187017 19.44922921 26.52734375 17.12109375 C25.28584276 16.35736422 24.04430521 15.59369412 22.80273438 14.83007812 C20.86413008 13.6312789 18.92661952 12.43074693 16.98999023 11.22875977 C15.10931341 10.06342073 13.22479442 8.90450276 11.33984375 7.74609375 C9.65942993 6.70473267 9.65942993 6.70473267 7.94506836 5.64233398 C4.33532199 3.62933856 2.09138807 3 -2 3 C-2 3.66 -2 4.32 -2 5 C-6.455 6.485 -6.455 6.485 -11 8 C-8.53410087 3.7934662 -5.43718565 2.7255722 -1 1 C-0.67 0.67 -0.34 0.34 0 0 Z " fill="#7EA7C9" transform="translate(150,98)"/>
<path d="M0 0 C0.66 0.33 1.32 0.66 2 1 C2 14.53 2 28.06 2 42 C-3 40 -3 40 -5 38 C-4.50959229 37.31301025 -4.01918457 36.62602051 -3.51391602 35.91821289 C-1.69889035 32.41958335 -1.68146777 30.23027444 -1.77734375 26.30859375 C-1.79603516 25.03435547 -1.81472656 23.76011719 -1.83398438 22.44726562 C-1.86719134 21.1106442 -1.90170955 19.77405474 -1.9375 18.4375 C-2.00066106 15.81107891 -2.04861005 13.18557941 -2.08984375 10.55859375 C-2.11941162 9.39642334 -2.14897949 8.23425293 -2.17944336 7.03686523 C-2.00479884 4.08121472 -1.55094067 2.48005808 0 0 Z " fill="#AA87C3" transform="translate(214,207)"/>
<path d="M0 0 C-12.90652088 7.78856583 -25.83813185 15.53446184 -38.82925415 23.18118286 C-40.10452283 23.93231468 -41.37908633 24.6846451 -42.65292358 25.4382019 C-44.44886879 26.50006993 -46.24747654 27.55727824 -48.046875 28.61328125 C-49.07651367 29.21954346 -50.10615234 29.82580566 -51.16699219 30.45043945 C-53.73461966 31.85484583 -56.25900414 32.98454846 -59 34 C-59 33.34 -59 32.68 -59 32 C-57.02 31.505 -57.02 31.505 -55 31 C-55 30.34 -55 29.68 -55 29 C-53.35 28.67 -51.7 28.34 -50 28 C-50 27.34 -50 26.68 -50 26 C-48.35 25.67 -46.7 25.34 -45 25 C-45 24.34 -45 23.68 -45 23 C-44.01 23 -43.02 23 -42 23 C-42 22.34 -42 21.68 -42 21 C-40.68 21 -39.36 21 -38 21 C-38 20.34 -38 19.68 -38 19 C-36.35 18.67 -34.7 18.34 -33 18 C-33 17.34 -33 16.68 -33 16 C-32.01 16 -31.02 16 -30 16 C-29.67 15.01 -29.34 14.02 -29 13 C-27.28515625 12.04296875 -27.28515625 12.04296875 -25.0625 11.1875 C-20.44180923 9.28747196 -16.3639276 6.86512183 -12.1640625 4.171875 C-10 3 -10 3 -7 3 C-7 2.34 -7 1.68 -7 1 C-3.375 -1.125 -3.375 -1.125 0 0 Z " fill="#668CAA" transform="translate(154,162)"/>
<path d="M0 0 C2.64 0.33 5.28 0.66 8 1 C5.29469274 4.11429859 1.89318168 5.9790124 -1.63671875 8.01171875 C-2.27615921 8.38480667 -2.91559967 8.75789459 -3.57441711 9.14228821 C-5.60960225 10.32840053 -7.64846611 11.50801877 -9.6875 12.6875 C-11.07121145 13.49241251 -12.45467791 14.29774635 -13.83789062 15.10351562 C-17.22244102 17.07390371 -20.61030442 19.03847759 -24 21 C-24.33 20.01 -24.66 19.02 -25 18 C-18.63223015 12.98404721 -11.90330504 7.87396428 -4.28125 4.9609375 C-1.83316921 4.18941046 -1.83316921 4.18941046 -0.6875 1.875 C-0.460625 1.25625 -0.23375 0.6375 0 0 Z " fill="#7C91B6" transform="translate(119,228)"/>
<path d="M0 0 C0.66 0.33 1.32 0.66 2 1 C1.67 12.22 1.34 23.44 1 35 C-0.32 35.66 -1.64 36.32 -3 37 C-2.814375 35.96875 -2.62875 34.9375 -2.4375 33.875 C-1.82671215 30.20551629 -1.82671215 30.20551629 -2.5 27.4375 C-3.20061546 22.62076869 -2.84812332 17.9707473 -2.5625 13.125 C-2.51029297 12.15046875 -2.45808594 11.1759375 -2.40429688 10.171875 C-2.27536992 7.78086598 -2.14044056 5.39035574 -2 3 C-1.34 3 -0.68 3 0 3 C0 2.01 0 1.02 0 0 Z " fill="#9E9ECC" transform="translate(213,95)"/>
<path d="M0 0 C2.31 0 4.62 0 7 0 C7 0.66 7 1.32 7 2 C8.98 2.66 10.96 3.32 13 4 C13 4.66 13 5.32 13 6 C13.9075 6.0825 14.815 6.165 15.75 6.25 C19.40077839 7.09248732 20.63384583 8.17881618 23 11 C20.16798509 11.81785431 18.56366381 12.22353148 15.7800293 11.11962891 C14.68815308 10.43006104 14.68815308 10.43006104 13.57421875 9.7265625 C12.77822266 9.2315625 11.98222656 8.7365625 11.16210938 8.2265625 C9.93717773 7.43378906 9.93717773 7.43378906 8.6875 6.625 C7.85154297 6.10421875 7.01558594 5.5834375 6.15429688 5.046875 C1.79175566 2.29758372 1.79175566 2.29758372 0 1 C0 0.67 0 0.34 0 0 Z " fill="#9681B6" transform="translate(186,231)"/>
<path d="M0 0 C-3.93483961 2.31704962 -7.87331007 4.62785531 -11.8125 6.9375 C-12.93205078 7.59685547 -14.05160156 8.25621094 -15.20507812 8.93554688 C-16.27822266 9.56396484 -17.35136719 10.19238281 -18.45703125 10.83984375 C-19.9416687 11.71177368 -19.9416687 11.71177368 -21.45629883 12.60131836 C-24 14 -24 14 -27 15 C-27 13 -27 13 -24.8125 10.5625 C-19.70548442 5.90944136 -13.07876907 2 -6 2 C-6 1.34 -6 0.68 -6 0 C-3 -1 -3 -1 0 0 Z " fill="#5E91AC" transform="translate(154,101)"/>
<path d="M0 0 C2.31 0.33 4.62 0.66 7 1 C7.33 1.99 7.66 2.98 8 4 C9.299375 4.1546875 9.299375 4.1546875 10.625 4.3125 C14.16683123 5.03398414 16.84312042 6.27123261 20 8 C20 8.66 20 9.32 20 10 C20.99 10.33 21.98 10.66 23 11 C23 11.99 23 12.98 23 14 C19.6487836 12.73450827 16.63101496 11.29812102 13.57421875 9.43359375 C12.77822266 8.94826172 11.98222656 8.46292969 11.16210938 7.96289062 C10.34548828 7.45951172 9.52886719 6.95613281 8.6875 6.4375 C7.85154297 5.93025391 7.01558594 5.42300781 6.15429688 4.90039062 C1.57573356 2.09345099 1.57573356 2.09345099 0 1 C0 0.67 0 0.34 0 0 Z " fill="#9582B6" transform="translate(203,189)"/>
<path d="M0 0 C5.71695055 -0.59551568 8.69983599 0.59837554 13.49609375 3.7109375 C13.99238281 4.13632813 14.48867187 4.56171875 15 5 C15 5.66 15 6.32 15 7 C16.2065625 7.185625 16.2065625 7.185625 17.4375 7.375 C18.283125 7.58125 19.12875 7.7875 20 8 C20.33 8.66 20.66 9.32 21 10 C20.67 10.66 20.34 11.32 20 12 C15.37909884 10.35800988 11.36156215 7.9659032 7.1875 5.4375 C6.49462891 5.02564453 5.80175781 4.61378906 5.08789062 4.18945312 C3.37298683 3.15713173 1.68380945 2.08229765 0 1 C0 0.67 0 0.34 0 0 Z " fill="#84A0C4" transform="translate(168,109)"/>
<path d="M0 0 C0.66 0.33 1.32 0.66 2 1 C1.67 1.66 1.34 2.32 1 3 C0.01 3 -0.98 3 -2 3 C-2 3.66 -2 4.32 -2 5 C-3.65 5.33 -5.3 5.66 -7 6 C-7 6.66 -7 7.32 -7 8 C-8.32 8 -9.64 8 -11 8 C-11 8.66 -11 9.32 -11 10 C-11.99 10 -12.98 10 -14 10 C-14 10.66 -14 11.32 -14 12 C-15.65 12.33 -17.3 12.66 -19 13 C-19 13.66 -19 14.32 -19 15 C-19.66 15 -20.32 15 -21 15 C-20.41211498 12.06057489 -19.57122239 10.40481256 -17.109375 8.66015625 C-12.54042481 6.10371983 -7.8212174 4.02491131 -3 2 C-2.01 1.34 -1.02 0.68 0 0 Z " fill="#84B3D7" transform="translate(123,175)"/>
<path d="M0 0 C0.33 0 0.66 0 1 0 C1 15.84 1 31.68 1 48 C-0.65 47.34 -2.3 46.68 -4 46 C-3.51391769 45.59343674 -3.02783539 45.18687347 -2.52702332 44.76799011 C-0.64312546 42.58681007 -0.60937543 41.55940441 -0.56762695 38.7121582 C-0.53793571 37.42115959 -0.53793571 37.42115959 -0.50764465 36.1040802 C-0.50125473 35.17899155 -0.49486481 34.25390289 -0.48828125 33.30078125 C-0.46135445 31.87550362 -0.46135445 31.87550362 -0.43388367 30.4214325 C-0.37968107 27.38516687 -0.34585296 24.34905933 -0.3125 21.3125 C-0.27933572 19.25453525 -0.2448469 17.19659138 -0.20898438 15.13867188 C-0.1239488 10.09256181 -0.05718502 5.04649944 0 0 Z " fill="#7B83B4" transform="translate(230,158)"/>
<path d="M0 0 C0.33 0 0.66 0 1 0 C1 12.54 1 25.08 1 38 C-4 36 -4 36 -6 34 C-3.525 33.505 -3.525 33.505 -1 33 C-0.67 22.11 -0.34 11.22 0 0 Z " fill="#8E7CB1" transform="translate(215,211)"/>
<path d="M0 0 C-3.28737411 2.00712206 -6.58057828 4.00447034 -9.875 6 C-10.81214844 6.57234375 -11.74929687 7.1446875 -12.71484375 7.734375 C-14.05869141 8.54648438 -14.05869141 8.54648438 -15.4296875 9.375 C-16.67081299 10.12910156 -16.67081299 10.12910156 -17.93701172 10.8984375 C-20 12 -20 12 -22 12 C-22 11.34 -22 10.68 -22 10 C-21.34 10 -20.68 10 -20 10 C-20 9.34 -20 8.68 -20 8 C-18.71086513 7.32845067 -17.41859796 6.66291141 -16.125 6 C-15.40570313 5.62875 -14.68640625 5.2575 -13.9453125 4.875 C-12 4 -12 4 -10 4 C-10 3.34 -10 2.68 -10 2 C-3.375 -1.125 -3.375 -1.125 0 0 Z " fill="#7786AB" transform="translate(149,217)"/>
<path d="M0 0 C0.66 0.33 1.32 0.66 2 1 C1.67 1.66 1.34 2.32 1 3 C0.34 3 -0.32 3 -1 3 C-1 3.66 -1 4.32 -1 5 C-2.7634375 5.86625 -2.7634375 5.86625 -4.5625 6.75 C-7.39577157 8.1590871 -10.14929308 9.6432675 -12.875 11.25 C-16 13 -16 13 -18 13 C-16.84556105 9.53668314 -16.27570341 9.26722481 -13.25390625 7.484375 C-12.49916016 7.03835937 -11.74441406 6.59234375 -10.96679688 6.1328125 C-10.17337891 5.67648438 -9.37996094 5.22015625 -8.5625 4.75 C-7.77294922 4.27820313 -6.98339844 3.80640625 -6.16992188 3.3203125 C-1.77941609 0.76011987 -1.77941609 0.76011987 0 0 Z " fill="#8BA8CE" transform="translate(148,160)"/>
<path d="M0 0 C0.66 0.33 1.32 0.66 2 1 C-1.75 4 -1.75 4 -4 4 C-4 4.66 -4 5.32 -4 6 C-5.28913487 6.67154933 -6.58140204 7.33708859 -7.875 8 C-8.59429687 8.37125 -9.31359375 8.7425 -10.0546875 9.125 C-12 10 -12 10 -14 10 C-14 10.66 -14 11.32 -14 12 C-14.66 12 -15.32 12 -16 12 C-16 12.66 -16 13.32 -16 14 C-17.65 14.33 -19.3 14.66 -21 15 C-20.67 14.34 -20.34 13.68 -20 13 C-19.34 13 -18.68 13 -18 13 C-17.97679688 12.41476563 -17.95359375 11.82953125 -17.9296875 11.2265625 C-16.47497357 7.74258375 -13.39308331 6.8492252 -10.125 5.375 C-4.92599707 2.94370841 -4.92599707 2.94370841 0 0 Z " fill="#97A1CD" transform="translate(143,215)"/>
<path d="M0 0 C0.66 0.33 1.32 0.66 2 1 C0.625 2.5 0.625 2.5 -1 4 C-1.66 4 -2.32 4 -3 4 C-3 4.66 -3 5.32 -3 6 C-5.64 6.66 -8.28 7.32 -11 8 C-11 8.66 -11 9.32 -11 10 C-13.70879335 11.35439668 -16.00933268 11.06501451 -19 11 C-16.7878416 8.52882305 -14.81003694 7.30898358 -11.75 6.0625 C-8.70492134 4.78088451 -5.8853077 3.40367239 -3.0625 1.6875 C-1.5465625 0.8521875 -1.5465625 0.8521875 0 0 Z " fill="#6FAFCE" transform="translate(130,110)"/>
<path d="M0 0 C-3.6208088 2.17373046 -7.24731235 4.33777229 -10.875 6.5 C-11.90753906 7.12003906 -12.94007812 7.74007812 -14.00390625 8.37890625 C-14.99003906 8.96542969 -15.97617188 9.55195312 -16.9921875 10.15625 C-17.90339355 10.70087891 -18.81459961 11.24550781 -19.75341797 11.80664062 C-22 13 -22 13 -24 13 C-24 12.34 -24 11.68 -24 11 C-22.68 10.67 -21.36 10.34 -20 10 C-20 9.34 -20 8.68 -20 8 C-18.35 7.67 -16.7 7.34 -15 7 C-15 6.34 -15 5.68 -15 5 C-12.69 4.34 -10.38 3.68 -8 3 C-8 2.34 -8 1.68 -8 1 C-3.375 -1.125 -3.375 -1.125 0 0 Z " fill="#5695AE" transform="translate(127,117)"/>
<path d="M0 0 C-6.27 3.63 -12.54 7.26 -19 11 C-19.33 10.01 -19.66 9.02 -20 8 C-17.23776722 5.23776722 -14.79293383 5.42143709 -11 5 C-11 4.34 -11 3.68 -11 3 C-10.01 3 -9.02 3 -8 3 C-8 2.34 -8 1.68 -8 1 C-4.59449725 -1.06762667 -4.18836538 -1.04709135 0 0 Z " fill="#6B87A7" transform="translate(114,238)"/>
<path d="M0 0 C2.64 0.99 5.28 1.98 8 3 C8 3.66 8 4.32 8 5 C9.32 5.33 10.64 5.66 12 6 C12 6.66 12 7.32 12 8 C13.65 8 15.3 8 17 8 C16.67 8.66 16.34 9.32 16 10 C12.37 9.01 8.74 8.02 5 7 C5 6.01 5 5.02 5 4 C2.525 3.01 2.525 3.01 0 2 C0 1.34 0 0.68 0 0 Z " fill="#9D96C6" transform="translate(157,211)"/>
<path d="M0 0 C0.556875 0.22042969 1.11375 0.44085938 1.6875 0.66796875 C1.0275 0.66796875 0.3675 0.66796875 -0.3125 0.66796875 C-0.3125 1.32796875 -0.3125 1.98796875 -0.3125 2.66796875 C-3.21850261 3.92461853 -5.10854584 4.66796875 -8.3125 4.66796875 C-8.3125 5.32796875 -8.3125 5.98796875 -8.3125 6.66796875 C-9.3025 6.66796875 -10.2925 6.66796875 -11.3125 6.66796875 C-11.3125 7.32796875 -11.3125 7.98796875 -11.3125 8.66796875 C-12.9625 8.99796875 -14.6125 9.32796875 -16.3125 9.66796875 C-13.53761396 6.71965234 -10.76130996 4.47417365 -7.3125 2.35546875 C-6.0440625 1.55689453 -6.0440625 1.55689453 -4.75 0.7421875 C-2.3125 -0.33203125 -2.3125 -0.33203125 0 0 Z " fill="#8BA0C7" transform="translate(114.3125,234.33203125)"/>
<path d="M0 0 C-4.95 2.97 -9.9 5.94 -15 9 C-15.33 8.01 -15.66 7.02 -16 6 C-12.93882432 3.37613513 -12.26826873 3 -8 3 C-8 2.34 -8 1.68 -8 1 C-3.375 -1.125 -3.375 -1.125 0 0 Z " fill="#6198B4" transform="translate(95,197)"/>
<path d="M0 0 C0.66 0.33 1.32 0.66 2 1 C0.71186658 1.83878455 -0.58063256 2.67086783 -1.875 3.5 C-2.59429687 3.9640625 -3.31359375 4.428125 -4.0546875 4.90625 C-6 6 -6 6 -8 6 C-8 6.66 -8 7.32 -8 8 C-9.98 8.99 -11.96 9.98 -14 11 C-13.90234375 9.23828125 -13.90234375 9.23828125 -13 7 C-10.8476309 5.53287494 -8.86607784 4.35283938 -6.5625 3.1875 C-5.96373047 2.86330078 -5.36496094 2.53910156 -4.74804688 2.20507812 C-3.20169806 1.39640523 -1.60286 0.68991763 0 0 Z " fill="#71C6E6" transform="translate(109,121)"/>
<path d="M0 0 C0.33 0 0.66 0 1 0 C1 2.31 1 4.62 1 7 C-1.97 5.35 -4.94 3.7 -8 2 C-8 1.67 -8 1.34 -8 1 C-6.865625 1.020625 -5.73125 1.04125 -4.5625 1.0625 C-1.18424326 1.41577477 -1.18424326 1.41577477 0 0 Z " fill="#8A8CB6" transform="translate(213,130)"/>
<path d="M0 0 C0.556875 0.226875 1.11375 0.45375 1.6875 0.6875 C-0.95988916 2.1481285 -2.20698334 2.6875 -5.3125 2.6875 C-5.395 3.285625 -5.4775 3.88375 -5.5625 4.5 C-6.52826779 7.31682273 -7.80118567 8.16549132 -10.3125 9.6875 C-10.9725 9.6875 -11.6325 9.6875 -12.3125 9.6875 C-12.3125 7.6875 -12.3125 7.6875 -10.125 5.25 C-3.79929679 -0.51341848 -3.79929679 -0.51341848 0 0 Z " fill="#67A0BD" transform="translate(139.3125,106.3125)"/>
<path d="M0 0 C-1.62170379 1.00533667 -3.24747237 2.00411907 -4.875 3 C-6.23238281 3.8353125 -6.23238281 3.8353125 -7.6171875 4.6875 C-10 6 -10 6 -12 6 C-10.91663521 2.50915788 -9.8952877 1.94478806 -6.5625 0.1875 C-3 -1 -3 -1 0 0 Z " fill="#57A4BF" transform="translate(103,131)"/>
<path d="M0 0 C1.2065625 0.0309375 1.2065625 0.0309375 2.4375 0.0625 C1.1175 0.3925 -0.2025 0.7225 -1.5625 1.0625 C-1.5625 1.7225 -1.5625 2.3825 -1.5625 3.0625 C-2.5525 3.0625 -3.5425 3.0625 -4.5625 3.0625 C-4.5625 3.7225 -4.5625 4.3825 -4.5625 5.0625 C-9.0175 6.5475 -9.0175 6.5475 -13.5625 8.0625 C-11.09660087 3.8559662 -7.99968565 2.7880722 -3.5625 1.0625 C-2.5625 0.0625 -2.5625 0.0625 0 0 Z " fill="#7AB0D2" transform="translate(152.5625,97.9375)"/>
<path d="M0 0 C5.625 -0.25 5.625 -0.25 9 2 C9 2.66 9 3.32 9 4 C3.375 4.25 3.375 4.25 0 2 C0 1.34 0 0.68 0 0 Z " fill="#909DC7" transform="translate(163,164)"/>
<path d="M0 0 C0.66 0.99 1.32 1.98 2 3 C-1.63 2.67 -5.26 2.34 -9 2 C-7.02836683 -1.94326634 -3.64958638 -1.12294965 0 0 Z " fill="#96AAD3" transform="translate(159,158)"/>
<path d="M0 0 C0.33 0 0.66 0 1 0 C1 4.29 1 8.58 1 13 C-1.475 12.01 -1.475 12.01 -4 11 C-3.525625 10.67 -3.05125 10.34 -2.5625 10 C-0.14208385 6.90186733 -0.31801083 3.87973208 0 0 Z " fill="#7E79AA" transform="translate(230,193)"/>
<path d="M0 0 C0.66 0.33 1.32 0.66 2 1 C1.67 1.66 1.34 2.32 1 3 C0.01 3 -0.98 3 -2 3 C-2 3.66 -2 4.32 -2 5 C-3.65 5.33 -5.3 5.66 -7 6 C-7 6.66 -7 7.32 -7 8 C-7.66 8 -8.32 8 -9 8 C-7.83917375 4.51752126 -7.09067524 4.11180756 -4.0625 2.25 C-3.35222656 1.80140625 -2.64195313 1.3528125 -1.91015625 0.890625 C-1.27980469 0.59671875 -0.64945313 0.3028125 0 0 Z " fill="#83A9CD" transform="translate(123,175)"/>
<path d="M0 0 C0.33 0 0.66 0 1 0 C1 5.28 1 10.56 1 16 C-0.32 16.33 -1.64 16.66 -3 17 C-2.01 15.515 -2.01 15.515 -1 14 C-0.70547416 11.61322924 -0.5071783 9.21373906 -0.375 6.8125 C-0.30023438 5.54019531 -0.22546875 4.26789063 -0.1484375 2.95703125 C-0.09945312 1.98121094 -0.05046875 1.00539062 0 0 Z " fill="#A57FBA" transform="translate(214,228)"/>
<path d="M0 0 C0.57234375 0.21527344 1.1446875 0.43054688 1.734375 0.65234375 C-0.9551778 3.34189655 -3.71889917 4.34565529 -7.265625 5.65234375 C-8.255625 5.32234375 -9.245625 4.99234375 -10.265625 4.65234375 C-9.02618224 3.78292881 -7.77355441 2.93228918 -6.515625 2.08984375 C-5.81953125 1.61417969 -5.1234375 1.13851562 -4.40625 0.6484375 C-2.265625 -0.34765625 -2.265625 -0.34765625 0 0 Z " fill="#9BB0DC" transform="translate(116.265625,231.34765625)"/>
<path d="M0 0 C0 0.99 0 1.98 0 3 C-2.70879335 4.35439668 -5.00933268 4.06501451 -8 4 C-5.29881977 1.17603885 -4.05589853 0 0 0 Z " fill="#71BADB" transform="translate(119,117)"/>
<path d="M0 0 C1.32 0 2.64 0 4 0 C3.67 0.99 3.34 1.98 3 3 C0.4375 4.1875 0.4375 4.1875 -2 5 C-1.125 1.125 -1.125 1.125 0 0 Z " fill="#7696B8" transform="translate(96,244)"/>
<path d="M0 0 C2.31 0.33 4.62 0.66 7 1 C7.33 2.32 7.66 3.64 8 5 C4.62496331 3.8141763 2.35277269 2.72426311 0 0 Z " fill="#8B83B3" transform="translate(203,189)"/>
<path d="M0 0 C-0.33 0.99 -0.66 1.98 -1 3 C-3.31 3.33 -5.62 3.66 -8 4 C-4.5 0 -4.5 0 0 0 Z " fill="#7496B7" transform="translate(132,173)"/>
</svg>
